<svg width="40" height="30" viewBox="0 0 40 30" fill="none" xmlns="http://www.w3.org/2000/svg">
    <path d="M8.792 12.62v2.101h3.175v-2.1c0-.3.055-.519.19-.683a.693.693 0 0 1 .516-.218c.217 0 .407.082.543.218.135.137.217.382.217.682v5.757c0 .3-.082.518-.217.681a.755.755 0 0 1-.543.219.755.755 0 0 1-.543-.219c-.135-.163-.19-.381-.19-.681V15.92H8.792v2.456c0 .3-.081.518-.217.681a.756.756 0 0 1-.542.219.756.756 0 0 1-.543-.219c-.136-.163-.19-.381-.19-.681V12.62c0-.3.054-.519.19-.683a.712.712 0 0 1 .543-.218c.217 0 .407.082.542.218.136.137.217.382.217.682zM11.126 4h17.72c3.067 0 5.835 1.255 7.87 3.3A11.23 11.23 0 0 1 40 15.213c0 3.083-1.248 5.865-3.284 7.911a11.047 11.047 0 0 1-7.734 3.274l-4.538.055H23.333l-1.57-.055H11.127c-3.066 0-5.834-1.255-7.87-3.301A11.206 11.206 0 0 1 0 15.185c0-3.083 1.248-5.865 3.284-7.911A11.025 11.025 0 0 1 11.126 4zm17.748 1.555H11.126a9.579 9.579 0 0 0-6.784 2.837 9.592 9.592 0 0 0-2.795 6.793 9.68 9.68 0 0 0 2.822 6.82 9.579 9.579 0 0 0 6.784 2.837l10.655.005c.434 0 1.134-.032 1.612 0h1.024l3.58.022h.85a9.58 9.58 0 0 0 6.784-2.837 9.68 9.68 0 0 0 2.822-6.82 9.68 9.68 0 0 0-2.822-6.82c-1.764-1.773-4.152-2.837-6.784-2.837zm-9.064 7.42H16.5v1.8h3.066a.78.78 0 0 1 .515.164c.109.11.163.246.163.41 0 .163-.054.3-.163.409-.108.109-.271.163-.515.163h-3.067v2.074h3.447c.244 0 .407.054.515.163.109.11.163.246.163.437 0 .163-.054.3-.163.409-.108.11-.298.164-.515.164h-4.017c-.325 0-.542-.082-.705-.219-.136-.136-.217-.382-.217-.682v-5.51c0-.218.027-.382.081-.518a.539.539 0 0 1 .299-.3 1.36 1.36 0 0 1 .515-.082h3.908c.244 0 .407.054.516.163.108.11.162.246.162.41 0 .163-.054.3-.162.409-.109.082-.272.136-.516.136zm3.446-.354v5.319h2.985c.245 0 .408.055.543.164.136.109.19.273.19.436 0 .191-.054.328-.19.437-.135.109-.298.163-.543.163h-3.554c-.326 0-.543-.082-.706-.218-.136-.136-.217-.382-.217-.682v-5.62c0-.3.054-.518.19-.681a.693.693 0 0 1 .515-.219c.218 0 .407.082.543.218.163.137.244.382.244.682zm7.517 3.682h-1.356v2.073c0 .3-.082.519-.218.682-.135.164-.325.219-.515.219a.756.756 0 0 1-.543-.219c-.136-.163-.19-.381-.19-.654v-5.647c0-.327.082-.546.217-.71.136-.136.38-.218.706-.218h1.9c.57 0 .976.055 1.302.137.298.082.543.218.76.409.217.19.38.436.488.71.109.272.163.6.163.954 0 .737-.217 1.31-.678 1.691-.462.382-1.14.573-2.036.573zm-.352-3.355h-1.004v2.237h1.004c.352 0 .624-.027.868-.11.244-.081.407-.19.543-.354.108-.164.19-.382.19-.655 0-.327-.082-.573-.272-.79-.244-.22-.678-.328-1.33-.328z" fill="#121212"/>
</svg>
