<svg width="24" height="24" viewBox="0 0 24 24" fill="none" xmlns="http://www.w3.org/2000/svg">
<path d="M2.90674 3.42749L4.94101 3.77958L5.88284 15.0004C5.95815 15.9168 6.72393 16.6199 7.64327 16.617H18.3124C19.1897 16.619 19.934 15.9735 20.0582 15.105L20.9863 8.69117C21.09 7.97429 20.5922 7.30924 19.8763 7.20557C19.8137 7.19676 5.26767 7.19187 5.26767 7.19187" stroke="#323232" stroke-width="1.5" stroke-linecap="round" stroke-linejoin="round"/>
<path d="M14.0316 10.8066H16.7437" stroke="#323232" stroke-width="1.5" stroke-linecap="round" stroke-linejoin="round"/>
<path fill-rule="evenodd" clip-rule="evenodd" d="M7.21423 20.0073C7.50861 20.0073 7.74627 20.246 7.74627 20.5394C7.74627 20.8337 7.50861 21.0724 7.21423 21.0724C6.91985 21.0724 6.68219 20.8337 6.68219 20.5394C6.68219 20.246 6.91985 20.0073 7.21423 20.0073Z" fill="#323232" stroke="#323232" stroke-width="1.5" stroke-linecap="round" stroke-linejoin="round"/>
<path fill-rule="evenodd" clip-rule="evenodd" d="M18.2465 20.0073C18.5409 20.0073 18.7795 20.246 18.7795 20.5394C18.7795 20.8337 18.5409 21.0724 18.2465 21.0724C17.9521 21.0724 17.7145 20.8337 17.7145 20.5394C17.7145 20.246 17.9521 20.0073 18.2465 20.0073Z" fill="#323232" stroke="#323232" stroke-width="1.5" stroke-linecap="round" stroke-linejoin="round"/>
</svg>
