<svg width="30" height="30" viewBox="0 0 30 30" xmlns="http://www.w3.org/2000/svg" xmlns:xlink="http://www.w3.org/1999/xlink">
    <defs>
        <path id="a" d="M0 0h20v8H0z"/>
        <path id="c" d="M0 0h12v12H0z"/>
    </defs>
    <g fill="none" fill-rule="evenodd">
        <g transform="translate(3 21)">
            <mask id="b" fill="#fff">
                <use xlink:href="#a"/>
            </mask>
            <path d="M18.193 6.668c-2.73-.004-5.46-.003-8.19-.003-2.724 0-5.447-.001-8.17.003-.177 0-.24-.02-.219-.191.115-.873.367-1.706.902-2.466.512-.728 1.216-1.284 2.079-1.695 1.268-.604 2.654-.841 4.084-.935a19.435 19.435 0 0 1 3.136.037c1.469.14 2.878.445 4.115 1.18.995.591 1.673 1.387 2.072 2.36.203.496.317 1.009.382 1.532.018.141-.02.179-.19.178m1.803.448c-.034-.584-.085-1.165-.231-1.737-.404-1.587-1.32-2.894-2.887-3.842C15.502.704 13.936.31 12.286.125A20.773 20.773 0 0 0 8.442.059c-1.369.1-2.702.327-3.963.816-1.734.672-3.027 1.721-3.778 3.23-.479.96-.66 1.972-.7 3.011-.016.424.125.73.61.884h18.777c.485-.153.634-.46.61-.884" fill="#121212" mask="url(#b)"/>
        </g>
        <g transform="translate(7 8)">
            <mask id="d" fill="#fff">
                <use xlink:href="#c"/>
            </mask>
            <path d="M8.487 9.407c-1.536 1.229-3.671 1.165-5.15-.138-1.609-1.418-2.01-3.9-.897-5.692.666-1.073 1.688-1.672 2.978-1.817 1.489-.168 2.776.244 3.767 1.346.706.783.997 1.716 1.005 2.808-.043 1.343-.545 2.565-1.703 3.493m2.03-7.497C9.555.861 8.336.252 6.894.064c-1.588-.207-3.072.08-4.384.975C.788 2.214.05 3.872 0 5.845c.072 2.015.837 3.71 2.509 4.995 2.171 1.668 5.402 1.52 7.406-.33C11.3 9.23 11.984 7.664 12 5.842c.013-1.474-.453-2.806-1.484-3.932" fill="#121212" mask="url(#d)"/>
        </g>
    </g>
</svg>
