<!-- <svg width="24" height="24" viewBox="0 0 24 24" fill="none" xmlns="http://www.w3.org/2000/svg">
<path d="M18.214 4.5H2.78589C2.44502 4.50042 2.11823 4.64805 1.8772 4.91051C1.63617 5.17297 1.50059 5.52882 1.50021 5.9V8.7644C1.50021 8.7679 1.49973 8.77114 1.49973 8.77464C1.49973 8.77814 1.50021 8.78137 1.50021 8.78479V17.1C1.50059 17.4712 1.63617 17.827 1.8772 18.0895C2.11823 18.3519 2.44502 18.4996 2.78589 18.5H18.214C18.5549 18.4996 18.8817 18.3519 19.1227 18.0895C19.3638 17.827 19.4993 17.4712 19.4997 17.1V5.9C19.4993 5.52882 19.3638 5.17297 19.1227 4.91051C18.8817 4.64805 18.5549 4.50042 18.214 4.5ZM18.214 5.9L18.2142 8.07464H2.78589V5.9H18.214ZM18.214 17.1H2.78589V9.47464H18.2143L18.2148 17.1H18.214ZM16.9279 15C16.9279 15.1857 16.8602 15.3637 16.7396 15.495C16.619 15.6263 16.4555 15.7 16.285 15.7H13.7137C13.5432 15.7 13.3797 15.6263 13.2591 15.495C13.1386 15.3637 13.0708 15.1857 13.0708 15C13.0708 14.8143 13.1386 14.6363 13.2591 14.505C13.3797 14.3737 13.5432 14.3 13.7137 14.3H16.285C16.4555 14.3 16.619 14.3737 16.7396 14.505C16.8602 14.6363 16.9279 14.8143 16.9279 15ZM11.7852 15C11.7852 15.1857 11.7174 15.3637 11.5969 15.495C11.4763 15.6263 11.3128 15.7 11.1423 15.7H9.85664C9.68615 15.7 9.52264 15.6263 9.40209 15.495C9.28153 15.3637 9.2138 15.1857 9.2138 15C9.2138 14.8143 9.28153 14.6363 9.40209 14.505C9.52264 14.3737 9.68615 14.3 9.85664 14.3H11.1423C11.3128 14.3 11.4763 14.3737 11.5969 14.505C11.7174 14.6363 11.7852 14.8143 11.7852 15Z" fill="black"/>
</svg> -->

<svg width="22" height="14" viewBox="0 0 22 14" fill="none" xmlns="http://www.w3.org/2000/svg">
<path fill-rule="evenodd" clip-rule="evenodd" d="M20.25 1.55556V3.11111H2.25V1.55556H20.25ZM2.25 4.66667H20.25V12.4444H2.25V4.66667ZM20.25 0H2.25C1.85218 0 1.47064 0.163889 1.18934 0.455612C0.908035 0.747335 0.75 1.143 0.75 1.55556V12.4444C0.75 12.857 0.908035 13.2527 1.18934 13.5444C1.47064 13.8361 1.85218 14 2.25 14H20.25C20.6478 14 21.0294 13.8361 21.3107 13.5444C21.592 13.2527 21.75 12.857 21.75 12.4444V1.55556C21.75 1.143 21.592 0.747335 21.3107 0.455612C21.0294 0.163889 20.6478 0 20.25 0ZM15.75 9.33333H18.75V10.8889H15.75V9.33333Z" fill="#707070"/>
</svg>
