<svg width="6" height="10" viewBox="0 0 6 10" fill="none" xmlns="http://www.w3.org/2000/svg">
<path d="M6 0.869565V0H0V0.869565H2.0625C2.47639 0.870974 2.87533 1.04908 3.18315 1.36988C3.49096 1.69068 3.68608 2.13169 3.73125 2.6087H0V3.47826H3.73125C3.68608 3.95527 3.49096 4.39628 3.18315 4.71708C2.87533 5.03787 2.47639 5.21598 2.0625 5.21739H0V6.23696L3.60638 10L4.10812 9.35391L0.97725 6.08696H2.0625C2.67603 6.08592 3.2667 5.81684 3.71672 5.33334C4.16675 4.84985 4.44308 4.18747 4.49063 3.47826H6V2.6087H4.49063C4.4476 1.95584 4.20956 1.34082 3.8175 0.869565H6Z" fill="#666666"/>
</svg>
