<svg width="14" height="16" viewBox="0 0 14 16" fill="none" xmlns="http://www.w3.org/2000/svg">
<path d="M11.9 1.6H10.5V0.8C10.5 0.587827 10.4263 0.384344 10.295 0.234315C10.1637 0.0842854 9.98565 0 9.8 0C9.61435 0 9.4363 0.0842854 9.30503 0.234315C9.17375 0.384344 9.1 0.587827 9.1 0.8V1.6H4.9V0.8C4.9 0.587827 4.82625 0.384344 4.69497 0.234315C4.5637 0.0842854 4.38565 0 4.2 0C4.01435 0 3.8363 0.0842854 3.70503 0.234315C3.57375 0.384344 3.5 0.587827 3.5 0.8V1.6H2.1C1.54305 1.6 1.0089 1.85286 0.615076 2.30294C0.221249 2.75303 0 3.36348 0 4V13.6C0 14.2365 0.221249 14.847 0.615076 15.2971C1.0089 15.7471 1.54305 16 2.1 16H11.9C12.457 16 12.9911 15.7471 13.3849 15.2971C13.7788 14.847 14 14.2365 14 13.6V4C14 3.36348 13.7788 2.75303 13.3849 2.30294C12.9911 1.85286 12.457 1.6 11.9 1.6ZM12.6 13.6C12.6 13.8122 12.5263 14.0157 12.395 14.1657C12.2637 14.3157 12.0857 14.4 11.9 14.4H2.1C1.91435 14.4 1.7363 14.3157 1.60503 14.1657C1.47375 14.0157 1.4 13.8122 1.4 13.6V8H12.6V13.6ZM12.6 6.4H1.4V4C1.4 3.78783 1.47375 3.58434 1.60503 3.43431C1.7363 3.28429 1.91435 3.2 2.1 3.2H3.5V4C3.5 4.21217 3.57375 4.41566 3.70503 4.56569C3.8363 4.71571 4.01435 4.8 4.2 4.8C4.38565 4.8 4.5637 4.71571 4.69497 4.56569C4.82625 4.41566 4.9 4.21217 4.9 4V3.2H9.1V4C9.1 4.21217 9.17375 4.41566 9.30503 4.56569C9.4363 4.71571 9.61435 4.8 9.8 4.8C9.98565 4.8 10.1637 4.71571 10.295 4.56569C10.4263 4.41566 10.5 4.21217 10.5 4V3.2H11.9C12.0857 3.2 12.2637 3.28429 12.395 3.43431C12.5263 3.58434 12.6 3.78783 12.6 4V6.4Z" fill="black"/>
</svg>
