<svg width="18" height="15" viewBox="0 0 18 15" fill="none" xmlns="http://www.w3.org/2000/svg">
<path d="M0 3.3C0 2.55739 0.270918 1.8452 0.753154 1.3201C1.23539 0.794999 1.88944 0.5 2.57143 0.5H15.4286C16.1106 0.5 16.7646 0.794999 17.2468 1.3201C17.7291 1.8452 18 2.55739 18 3.3V11.7C18 12.4426 17.7291 13.1548 17.2468 13.6799C16.7646 14.205 16.1106 14.5 15.4286 14.5H2.57143C1.88944 14.5 1.23539 14.205 0.753154 13.6799C0.270918 13.1548 0 12.4426 0 11.7V3.3ZM15.4286 13.1C15.7696 13.1 16.0966 12.9525 16.3377 12.6899C16.5788 12.4274 16.7143 12.0713 16.7143 11.7V7.5H7.33757L8.81229 9.1044C8.933 9.23584 9.00081 9.41411 9.00081 9.6C9.00081 9.78589 8.933 9.96416 8.81229 10.0956C8.69157 10.227 8.52785 10.3009 8.35714 10.3009C8.18643 10.3009 8.02271 10.227 7.902 10.0956L6.42857 8.4898V13.1H15.4286ZM8.89071 6.1H16.7143V3.3C16.7143 2.9287 16.5788 2.5726 16.3377 2.31005C16.0966 2.0475 15.7696 1.9 15.4286 1.9H6.42857V3.419C6.772 3.28643 7.14289 3.2625 7.49829 3.34999C7.85369 3.43749 8.17905 3.63282 8.4367 3.91337C8.69435 4.19392 8.87374 4.54821 8.95409 4.9352C9.03444 5.32219 9.01247 5.72605 8.89071 6.1ZM7.07143 6.1C7.19857 6.1 7.32286 6.05895 7.42858 5.98203C7.5343 5.90511 7.61669 5.79579 7.66535 5.66788C7.71401 5.53997 7.72674 5.39922 7.70193 5.26344C7.67713 5.12765 7.6159 5.00292 7.526 4.90503C7.43609 4.80713 7.32155 4.74046 7.19684 4.71345C7.07214 4.68644 6.94288 4.7003 6.82542 4.75328C6.70795 4.80627 6.60755 4.89599 6.53691 5.0111C6.46627 5.12621 6.42857 5.26155 6.42857 5.4V6.1H7.07143ZM5.14286 3.419V1.9H2.57143C2.23044 1.9 1.90341 2.0475 1.66229 2.31005C1.42117 2.5726 1.28571 2.9287 1.28571 3.3V6.1H2.68071C2.55896 5.72605 2.53699 5.32219 2.61734 4.9352C2.69769 4.54821 2.87708 4.19392 3.13473 3.91337C3.39238 3.63282 3.71774 3.43749 4.07314 3.34999C4.42854 3.2625 4.79943 3.28643 5.14286 3.419ZM4.5 6.1H5.14286V5.4C5.14286 5.26155 5.10515 5.12621 5.03452 5.0111C4.96388 4.89599 4.86348 4.80627 4.74601 4.75328C4.62854 4.7003 4.49929 4.68644 4.37458 4.71345C4.24988 4.74046 4.13534 4.80713 4.04543 4.90503C3.95553 5.00292 3.8943 5.12765 3.8695 5.26344C3.84469 5.39922 3.85742 5.53997 3.90608 5.66788C3.95473 5.79579 4.03713 5.90511 4.14285 5.98203C4.24856 6.05895 4.37285 6.1 4.5 6.1ZM4.23386 7.5H1.28571V11.7C1.28571 12.0713 1.42117 12.4274 1.66229 12.6899C1.90341 12.9525 2.23044 13.1 2.57143 13.1H5.14286V8.4898L3.66943 10.0956C3.60966 10.1607 3.5387 10.2123 3.46061 10.2475C3.38251 10.2828 3.29881 10.3009 3.21429 10.3009C3.12976 10.3009 3.04606 10.2828 2.96796 10.2475C2.88987 10.2123 2.81891 10.1607 2.75914 10.0956C2.69937 10.0305 2.65196 9.95325 2.61961 9.86822C2.58727 9.78318 2.57062 9.69204 2.57062 9.6C2.57062 9.50796 2.58727 9.41682 2.61961 9.33178C2.65196 9.24675 2.69937 9.16948 2.75914 9.1044L4.23386 7.5Z" fill="black"/>
</svg>
