<svg width="18" height="16" viewBox="0 0 18 16" fill="none" xmlns="http://www.w3.org/2000/svg">
<path fill-rule="evenodd" clip-rule="evenodd" d="M0.380859 5.54541L8.37451 0L16.4062 5.54541H0.380859ZM15.5991 8.43847C16.2601 8.51678 16.869 8.82877 17.3112 9.3157C17.7534 9.80263 17.9984 10.4309 18 11.0822V13.3376C18 14.0437 17.7133 14.7209 17.2028 15.2202C16.6924 15.7195 16.0002 16 15.2783 16C14.5565 16 13.8642 15.7195 13.3538 15.2202C12.8434 14.7209 12.5566 14.0437 12.5566 13.3376V11.0808C12.5582 10.4298 12.803 9.80194 13.245 9.31528C13.6869 8.82862 14.2955 8.51678 14.9561 8.43847V6.96686C14.9561 6.88326 14.99 6.80307 15.0504 6.74395C15.1109 6.68483 15.1929 6.65162 15.2783 6.65162C15.3638 6.65162 15.4458 6.68483 15.5062 6.74395C15.5666 6.80307 15.6006 6.88326 15.6006 6.96686V8.43847H15.5991ZM16.7461 9.64643C16.4558 9.36282 16.0861 9.16967 15.6837 9.09134C15.2813 9.01301 14.8642 9.053 14.485 9.20628C14.1059 9.35955 13.7816 9.61924 13.5531 9.95259C13.3246 10.2859 13.2021 10.678 13.2012 11.0793V13.3376C13.2012 13.8769 13.4202 14.3941 13.81 14.7754C14.1998 15.1567 14.7285 15.3709 15.2798 15.3709C15.8311 15.3709 16.3598 15.1567 16.7496 14.7754C17.1394 14.3941 17.3584 13.8769 17.3584 13.3376V11.0808C17.3578 10.8144 17.3035 10.5507 17.1987 10.3049C17.0939 10.059 16.9406 9.83574 16.7476 9.64786L16.7461 9.64643ZM15.2476 10.5062C15.3846 10.5066 15.5159 10.56 15.6128 10.6547C15.7097 10.7495 15.7643 10.878 15.7646 11.012V11.535C15.7631 11.6683 15.708 11.7956 15.6112 11.8895C15.5145 11.9833 15.3838 12.0362 15.2476 12.0365C15.1105 12.0358 14.9793 11.9823 14.8822 11.8876C14.7852 11.793 14.7302 11.6648 14.729 11.5307V11.0048C14.7294 10.8706 14.7842 10.7419 14.8814 10.6471C14.9786 10.5523 15.1103 10.499 15.2476 10.499V10.5062ZM0 13.6357H0.930176V12.7917H1.41797V12.389H1.94238V7.55866H0.870117V6.40229H14.0039C13.9209 6.57942 13.8779 6.772 13.8779 6.96686V7.62744C13.7915 7.66183 13.7051 7.69909 13.6216 7.73921C13.338 7.87409 13.0728 8.04305 12.832 8.24216V7.55866H11.1753V12.389H11.4785V13.3376C11.4777 13.7395 11.544 14.1388 11.6748 14.5198H0V13.6357ZM4.44141 12.7917H5.04639V12.389H5.56641V7.55866H3.91699V12.389H4.44141V12.7917ZM8.07129 12.7917H8.67773V12.389H9.20068V7.55866H7.54688V12.389H8.07129V12.7917ZM5.68213 4.14687L8.38623 2.11786L11.105 4.14687H5.68213Z" fill="black"/>
</svg>
