<svg width="19" height="15" viewBox="0 0 19 15" fill="none" xmlns="http://www.w3.org/2000/svg">
<path d="M17.214 0.5H1.78589C1.44502 0.500417 1.11823 0.64805 0.877197 0.910511C0.636168 1.17297 0.50059 1.52882 0.500207 1.9V4.7644C0.500207 4.7679 0.499725 4.77114 0.499725 4.77464C0.499725 4.77814 0.500207 4.78138 0.500207 4.78479V13.1C0.50059 13.4712 0.636168 13.827 0.877197 14.0895C1.11823 14.3519 1.44502 14.4996 1.78589 14.5H17.214C17.5549 14.4996 17.8817 14.3519 18.1227 14.0895C18.3638 13.827 18.4993 13.4712 18.4997 13.1V1.9C18.4993 1.52882 18.3638 1.17297 18.1227 0.910511C17.8817 0.64805 17.5549 0.500417 17.214 0.5V0.5ZM17.214 1.9L17.2142 4.07464H1.78589V1.9H17.214ZM17.214 13.1H1.78589V5.47464H17.2143L17.2148 13.1H17.214ZM15.9279 11C15.9279 11.1857 15.8602 11.3637 15.7396 11.495C15.619 11.6263 15.4555 11.7 15.285 11.7H12.7137C12.5432 11.7 12.3797 11.6263 12.2591 11.495C12.1386 11.3637 12.0708 11.1857 12.0708 11C12.0708 10.8143 12.1386 10.6363 12.2591 10.505C12.3797 10.3737 12.5432 10.3 12.7137 10.3H15.285C15.4555 10.3 15.619 10.3737 15.7396 10.505C15.8602 10.6363 15.9279 10.8143 15.9279 11ZM10.7852 11C10.7852 11.1857 10.7174 11.3637 10.5969 11.495C10.4763 11.6263 10.3128 11.7 10.1423 11.7H8.85664C8.68615 11.7 8.52264 11.6263 8.40209 11.495C8.28153 11.3637 8.2138 11.1857 8.2138 11C8.2138 10.8143 8.28153 10.6363 8.40209 10.505C8.52264 10.3737 8.68615 10.3 8.85664 10.3H10.1423C10.3128 10.3 10.4763 10.3737 10.5969 10.505C10.7174 10.6363 10.7852 10.8143 10.7852 11Z" fill="black"/>
</svg>
