<svg width="24" height="24" viewBox="0 0 24 24" fill="none" xmlns="http://www.w3.org/2000/svg">
<path d="M18.7156 17.7856C15.5568 21.593 9.94392 22.0887 6.17827 18.8941C2.41369 15.6995 1.92349 10.0228 5.08222 6.21438C8.24095 2.40703 13.8539 1.91126 17.6195 5.10587C18.6063 5.94289 19.3671 6.95053 19.8976 8.04938" stroke="#4A4A4A" stroke-linecap="round" stroke-linejoin="round"/>
<path d="M18.1691 8.74048L21 9.79104V6.92694" stroke="#4A4A4A" stroke-linecap="round" stroke-linejoin="round"/>
<path d="M8 6V7.09091H10C10.852 7.09091 11.97 7.65709 12.36 8.72727H8V9.81818H12.485C12.33 11.2418 10.987 12 10 12H8V13.3473L13.125 18H14.6875L9.281 13.0909H10C11.617 13.0909 13.337 11.7873 13.485 9.81818H16V8.72727H13.406C13.255 8.08145 12.93 7.52945 12.5 7.09091H16V6H8Z" fill="#4A4A4A"/>
</svg>
