<svg width="21" height="20" viewBox="0 0 21 20" fill="none" xmlns="http://www.w3.org/2000/svg">
<path d="M20.3329 8.00002H19.6662V4.00002C19.6662 3.82321 19.596 3.65364 19.4709 3.52862C19.3459 3.40359 19.1764 3.33335 18.9995 3.33335H2.99954C2.84168 3.33593 2.68803 3.2824 2.56595 3.18229C2.44387 3.08218 2.36127 2.94199 2.33288 2.78669V2.54669C2.36127 2.39138 2.44387 2.2512 2.56595 2.15109C2.68803 2.05098 2.84168 1.99745 2.99954 2.00002H18.7195C18.8964 2.00002 19.0659 1.92978 19.1909 1.80476C19.316 1.67973 19.3862 1.51016 19.3862 1.33335C19.3862 1.15654 19.316 0.986974 19.1909 0.861949C19.0659 0.736925 18.8964 0.666687 18.7195 0.666687H2.99954C2.46911 0.666687 1.9604 0.877401 1.58533 1.25247C1.21026 1.62755 0.999542 2.13625 0.999542 2.66669C0.994863 2.74662 0.994863 2.82676 0.999542 2.90669V16.62C1.00216 16.979 1.07545 17.3339 1.21524 17.6645C1.35503 17.9951 1.55857 18.295 1.81424 18.5469C2.06991 18.7989 2.37271 18.998 2.70534 19.133C3.03797 19.2679 3.39393 19.336 3.75288 19.3334H18.9995C19.1764 19.3334 19.3459 19.2631 19.4709 19.1381C19.596 19.0131 19.6662 18.8435 19.6662 18.6667V14.6667H20.3329C20.5097 14.6667 20.6793 14.5964 20.8043 14.4714C20.9293 14.3464 20.9995 14.1768 20.9995 14V8.66669C20.9995 8.48988 20.9293 8.32031 20.8043 8.19528C20.6793 8.07026 20.5097 8.00002 20.3329 8.00002ZM18.3329 18H3.75288C3.38208 18.0036 3.02486 17.8606 2.75894 17.6022C2.49301 17.3438 2.33989 16.9908 2.33288 16.62V4.58669C2.54928 4.6494 2.77445 4.67642 2.99954 4.66669H18.3329V8.00002H13.6662C12.7822 8.00002 11.9343 8.35121 11.3092 8.97633C10.6841 9.60145 10.3329 10.4493 10.3329 11.3334C10.3329 12.2174 10.6841 13.0653 11.3092 13.6904C11.9343 14.3155 12.7822 14.6667 13.6662 14.6667H18.3329V18ZM19.6662 13.3334H13.6662C13.1358 13.3334 12.6271 13.1226 12.252 12.7476C11.8769 12.3725 11.6662 11.8638 11.6662 11.3334C11.6662 10.8029 11.8769 10.2942 12.252 9.91914C12.6271 9.54407 13.1358 9.33335 13.6662 9.33335H19.6662V13.3334Z" fill="black"/>
</svg>
