<svg width="16" height="14" viewBox="0 0 16 14" fill="none" xmlns="http://www.w3.org/2000/svg">
<path d="M15.8174 12.5071C15.2997 12.0945 14.8464 11.6214 14.4698 11.1006C14.0586 10.3818 13.8122 9.59682 13.745 8.7917V6.42037C13.7485 5.15579 13.2354 3.93357 12.3021 2.98336C11.3688 2.03314 10.0795 1.42033 8.67651 1.26007V0.640837C8.67651 0.470876 8.60099 0.307877 8.46657 0.187697C8.33215 0.0675166 8.14983 0 7.95973 0C7.76963 0 7.58731 0.0675166 7.45289 0.187697C7.31847 0.307877 7.24295 0.470876 7.24295 0.640837V1.26967C5.85249 1.44149 4.57878 2.058 3.65773 3.00502C2.73669 3.95205 2.23073 5.1654 2.23356 6.42037V8.7917C2.16631 9.59682 1.91988 10.3818 1.50872 11.1006C1.13873 11.6202 0.692722 12.0932 0.18255 12.5071C0.125279 12.5521 0.0793779 12.6075 0.047902 12.6695C0.016426 12.7316 9.65349e-05 12.799 0 12.8671V13.52C0 13.6473 0.0565674 13.7694 0.157258 13.8594C0.257949 13.9494 0.394515 14 0.536913 14H15.4631C15.6055 14 15.7421 13.9494 15.8427 13.8594C15.9434 13.7694 16 13.6473 16 13.52V12.8671C15.9999 12.799 15.9836 12.7316 15.9521 12.6695C15.9206 12.6075 15.8747 12.5521 15.8174 12.5071ZM1.11678 13.0399C1.61633 12.6085 2.05616 12.125 2.42685 11.5999C2.94476 10.7317 3.24694 9.77385 3.31275 8.7917V6.42037C3.29146 5.85779 3.39701 5.29714 3.62311 4.77179C3.84922 4.24645 4.19125 3.76715 4.62886 3.36245C5.06646 2.95775 5.59068 2.63591 6.1703 2.41611C6.74992 2.19631 7.37308 2.08303 8.00268 2.08303C8.63229 2.08303 9.25545 2.19631 9.83507 2.41611C10.4147 2.63591 10.9389 2.95775 11.3765 3.36245C11.8141 3.76715 12.1562 4.24645 12.3823 4.77179C12.6084 5.29714 12.7139 5.85779 12.6926 6.42037V8.7917C12.7584 9.77385 13.0606 10.7317 13.5785 11.5999C13.9492 12.125 14.389 12.6085 14.8886 13.0399H1.11678Z" fill="#4A4A4A"/>
</svg>
