<svg width="180" height="38" viewBox="0 0 180 38" fill="none" xmlns="http://www.w3.org/2000/svg">
<path fill-rule="evenodd" clip-rule="evenodd" d="M138.827 0C138.74 0 138.653 0.000998352 138.567 0.00299835C136.707 0.0769984 135.437 0.562999 134.687 1.487C133.589 2.841 133.609 5.129 133.63 7.551C133.633 7.895 133.636 8.244 133.636 8.595V8.852H131.746V12.949H133.636V29.9H138.469V12.95H139.956C142.068 12.95 143.619 11.242 143.724 8.852H138.469V6.102C138.469 4.808 139.304 3.971 140.595 3.971C141.621 3.971 142.855 4.537 143.435 5.623C144.28 4.545 144.502 3.471 144.075 2.499C143.418 1.004 141.309 0 138.827 0ZM154.726 8.31C153.091 8.388 151.643 9.516 150.749 11.407L150.264 12.432V8.81H146.171V29.9H151.003V21.433C151.003 20.337 151.003 18.973 151.086 17.636C151.356 14.542 153.697 12.877 155.762 12.877C156.878 12.877 157.768 13.366 158.215 14.203C159.012 13.425 159.276 12.135 158.867 10.884C158.338 9.266 156.922 8.299 155.08 8.299C154.965 8.299 154.846 8.303 154.726 8.31ZM124.933 8.31C123.298 8.388 121.849 9.516 120.956 11.407L120.471 12.432V8.81H116.377V29.9H121.21V21.433C121.21 20.337 121.21 18.973 121.293 17.636C121.563 14.542 123.905 12.877 125.97 12.877C127.084 12.877 127.976 13.366 128.422 14.203C129.219 13.425 129.484 12.135 129.075 10.884C128.545 9.266 127.13 8.299 125.286 8.299C125.171 8.299 125.053 8.303 124.933 8.31ZM94.823 24.11C96.503 28.08 100.064 30.356 104.593 30.356C108.571 30.356 111.398 28.964 113.462 25.979L109.576 24.071C108.228 25.396 106.406 26.153 104.546 26.153C104.147 26.153 103.749 26.1175 103.356 26.047C100.498 25.559 98.411 22.554 98.502 19.057C98.583 15.357 101.266 12.427 104.743 12.243C104.853 12.238 104.963 12.234 105.071 12.234C107.716 12.234 109.635 14.02 109.703 15.623C109.76 16.956 108.595 17.857 106.587 18.033C105.972 18.094 105.237 18.158 104.493 18.158C102.787 18.158 101.468 17.804 100.477 17.076C100.1 18.222 100.193 19.262 100.752 20.101C101.567 21.321 103.299 22.021 105.508 22.021C106.507 22.021 107.575 21.879 108.681 21.599C112.946 20.535 114.117 17.32 113.825 14.89C113.445 11.721 110.535 8.31 105.045 8.31C101.684 8.31 98.788 9.448 96.888 11.512C93.88 14.7 93.032 19.88 94.823 24.111V24.11ZM26.828 11.512C23.819 14.7 22.971 19.88 24.763 24.112C26.443 28.08 30.004 30.356 34.531 30.356C38.511 30.356 41.337 28.964 43.401 25.979L39.515 24.071C38.168 25.396 36.345 26.153 34.487 26.153C34.085 26.153 33.685 26.118 33.296 26.047C30.438 25.559 28.35 22.554 28.441 19.057C28.523 15.357 31.206 12.427 34.683 12.243C34.793 12.238 34.903 12.234 35.01 12.234C37.655 12.234 39.574 14.02 39.642 15.623C39.699 16.956 38.534 17.857 36.526 18.033C35.911 18.094 35.178 18.158 34.433 18.158C32.727 18.158 31.408 17.804 30.417 17.076C30.039 18.222 30.133 19.262 30.692 20.101C31.506 21.321 33.239 22.021 35.448 22.021C36.446 22.021 37.514 21.879 38.621 21.599C42.884 20.535 44.057 17.32 43.765 14.89C43.384 11.721 40.474 8.31 34.983 8.31C31.623 8.31 28.727 9.448 26.828 11.512ZM75.328 11.187L74.896 11.623V8.926L74.757 8.924C72.516 8.924 70.103 10.199 70.103 12.999V38H74.896V21.266C74.896 18.716 75.461 12.783 80.698 12.783C84.801 12.783 86.67 16.16 86.67 19.297C86.67 22.572 84.618 25.887 80.698 25.887C79.76 25.887 77.564 25.732 76.327 24.378C76.024 25.294 76.062 26.708 76.742 27.905C77.334 28.946 78.624 30.21 81.405 30.315C81.492 30.318 81.58 30.32 81.668 30.32C84.148 30.32 86.621 29.2 88.454 27.245C90.39 25.181 91.456 22.395 91.456 19.398C91.456 12.242 86.501 8.381 81.839 8.381C79.443 8.381 77.131 9.378 75.329 11.187H75.328ZM51.544 11.187L51.109 11.623V8.926L50.972 8.924C48.73 8.924 46.317 10.199 46.317 12.999V38H51.109V21.266C51.109 18.716 51.675 12.783 56.912 12.783C61.016 12.783 62.885 16.16 62.885 19.297C62.885 22.572 60.833 25.887 56.912 25.887C55.974 25.887 53.778 25.732 52.542 24.378C52.239 25.294 52.277 26.707 52.956 27.903C53.548 28.946 54.838 30.21 57.62 30.316C57.706 30.318 57.794 30.32 57.882 30.32C60.362 30.32 62.835 29.2 64.669 27.245C66.605 25.182 67.671 22.395 67.671 19.398C67.671 12.242 62.716 8.381 58.053 8.381C55.658 8.381 53.346 9.378 51.544 11.187ZM5.22701 11.187L4.793 11.623V8.926L4.655 8.924C2.413 8.924 0 10.2 0 13V38H4.793V21.266C4.793 18.716 5.358 12.783 10.595 12.783C14.698 12.783 16.567 16.16 16.567 19.297C16.567 22.572 14.515 25.887 10.595 25.887C9.657 25.887 7.46001 25.732 6.22301 24.378C5.92101 25.294 5.96001 26.708 6.63901 27.905C7.23101 28.946 8.52 30.21 11.304 30.315C11.389 30.318 11.478 30.32 11.566 30.32C14.044 30.32 16.518 29.2 18.352 27.245C20.288 25.181 21.354 22.395 21.354 19.398C21.354 12.242 16.398 8.381 11.736 8.381C9.33999 8.381 7.029 9.378 5.226 11.187H5.22701ZM175.209 8.852C175.212 10.975 175.229 25.527 175.229 27.25C175.229 31.238 173.094 33.35 168.882 33.531C168.792 33.534 168.702 33.536 168.614 33.536C166.268 33.536 163.229 32.523 161.733 30.314C161.286 32.282 161.548 33.937 162.515 35.241C163.796 36.969 166.323 37.96 169.447 37.96C176.154 37.96 180 34.162 180 27.54V8.853H175.21L175.209 8.852ZM161.565 8.852V22.679C161.565 25.056 162.146 26.819 163.343 28.069C164.691 29.467 166.469 30.207 168.482 30.207C168.648 30.207 168.814 30.202 168.98 30.192C171.616 30.02 173.167 29.182 173.721 27.631C174.378 25.671 173.612 24.194 172.959 23.589C172.949 24.095 172.794 24.531 172.493 24.889C171.97 25.514 171.048 25.844 169.829 25.844C168.253 25.844 167.081 24.806 166.612 22.994C166.164 21.32 166.224 14.624 166.262 10.622L166.275 8.852H161.565Z" fill="url(#paint0_linear_869_1874)"/>
<defs>
<linearGradient id="paint0_linear_869_1874" x1="0" y1="19" x2="180" y2="19" gradientUnits="userSpaceOnUse">
<stop stop-color="#EE2224"/>
<stop offset="1" stop-color="#F16521"/>
</linearGradient>
</defs>
</svg>
